<svg xmlns="http://www.w3.org/2000/svg" width="1600" height="520" viewBox="0 0 1600 520" role="img" aria-labelledby="title desc">
<title id="title">Parley — conversation, understanding, and a little practice every day</title>
<desc id="desc">Parley wordmark and an illustrated path from a conversation to a saved expression. Original brand illustration, not an application screenshot.</desc>
<defs><linearGradient id="wash" x1="0" y1="0" x2="1" y2="1"><stop stop-color="#fbfafe"/><stop offset="1" stop-color="#f0eaf8"/></linearGradient></defs>
<rect width="1600" height="520" rx="28" fill="url(#wash)"/>
<g fill="none" stroke="#e9e1f2"><circle cx="1385" cy="80" r="310"/><circle cx="1385" cy="80" r="240"/><path d="M800 520V0M0 440H800"/></g>
<g font-family="Inter,Noto Sans,Arial,sans-serif">
<text x="80" y="83" font-size="16" letter-spacing="4" fill="#81768f">OPEN SOURCE · LANGUAGE PRACTICE</text>
<text x="72" y="240" font-size="156" font-weight="750" letter-spacing="-10" fill="#292a32">parley<tspan fill="#7664b2">.</tspan></text>
<text x="81" y="314" font-size="30" font-weight="500" fill="#292a32">A little conversation. Every day.</text>
<text x="82" y="391" font-size="18" fill="#81768f">CHAT</text><path d="M154 384h42m-8-6 8 6-8 6" stroke="#7664b2" fill="none" stroke-width="2"/>
<text x="218" y="391" font-size="18" fill="#81768f">UNDERSTAND</text><path d="M363 384h42m-8-6 8 6-8 6" stroke="#7664b2" fill="none" stroke-width="2"/>
<text x="428" y="391" font-size="18" fill="#81768f">KEEP &amp; PRACTICE</text>
<text x="82" y="483" font-size="15" fill="#81768f">YOUR WORDS. YOUR CONTEXT. YOUR PACE.</text>
<g transform="translate(869 62) rotate(-3 290 110)"><rect width="590" height="210" rx="24" fill="#ffffff" stroke="#e9e1f2" stroke-width="2"/>
<circle cx="39" cy="39" r="6" fill="#7664b2"/><text x="57" y="45" font-size="15" letter-spacing="2" fill="#81768f">A CONVERSATION</text>
<text x="32" y="101" font-size="26" fill="#292a32">You're getting the hang of cooking.</text>
<rect x="166" y="78" width="258" height="32" rx="6" fill="#7664b2" opacity=".13"/>
<text x="32" y="155" font-size="22" fill="#81768f">What do you enjoy making?</text></g>
<g transform="translate(978 267) rotate(2 250 100)"><rect width="515" height="181" rx="23" fill="#ffffff" stroke="#e9e1f2" stroke-width="2"/>
<text x="30" y="42" font-size="14" letter-spacing="2" fill="#7664b2">ONE EXPRESSION TO KEEP</text>
<text x="30" y="91" font-size="30" font-weight="600" fill="#292a32">get the hang of</text>
<text x="31" y="132" font-size="21" fill="#81768f">learn how to do something</text>
<circle cx="455" cy="95" r="25" fill="#f0eaf8"/><path d="m444 95 8 8 14-16" fill="none" stroke="#7664b2" stroke-width="3" stroke-linecap="round" stroke-linejoin="round"/></g>
</g></svg>